<svg id="Layer_1" data-name="Layer 1" xmlns="http://www.w3.org/2000/svg" viewBox="0 0 158.8 98.72"><defs><style>.cls-1{fill:#f4a120;}.cls-2{fill:#fff;}.cls-3{fill:#e36e48;}</style></defs><path class="cls-1" d="M63,39.18C68.6,12.26,93.92-4.39,120.08,1a48.55,48.55,0,0,1,37.67,57.76c-5.57,26.93-31.29,44.37-57.44,39S57.46,66.11,63,39.18Z"/><path class="cls-2" d="M153.07,35.91a7.65,7.65,0,0,0-9.21-4.28l-2.54-7.07a4.33,4.33,0,1,0-6-2.8l-8.65,3.12a5.93,5.93,0,0,0-7.06-3.34l-3.11-8.66a4.33,4.33,0,1,0-6-2.84l-8.83,3.17a5.76,5.76,0,0,0-10.81,3.9L82,20.29a4.33,4.33,0,1,0-2.84,6l3.68,10.21a4.33,4.33,0,1,0,6,2.83l3.54-1.27.12.3a11.38,11.38,0,0,0,21.28-8l2-.72A6,6,0,0,0,122.81,33l2,5.51-.12,0a7.66,7.66,0,1,0,10.39,4.81L139,41.91a.56.56,0,0,1,0,.12,7.66,7.66,0,0,0,14-6.12ZM88.54,38.6a4.31,4.31,0,0,0-5-2.35L79.87,26a4.31,4.31,0,0,0,2.35-5l8.83-3.18h0a5.77,5.77,0,0,0,6.88,3.23l.78,2.15-.35.14a11.39,11.39,0,0,0-6.29,13.94Zm24.81-9.31A11.41,11.41,0,0,0,99.45,23l-.77-2.15A5.76,5.76,0,0,0,101.87,14l8.82-3.18a4.33,4.33,0,0,0,5,2.36l3.1,8.65h0a6,6,0,0,0-3.34,7.1l-2,.72Zm21.44,13.29,0-.09a7.64,7.64,0,0,0-9.21-4.28l-2-5.51a5.93,5.93,0,0,0,3.31-7.07l8.67-3.12a4.33,4.33,0,0,0,5,2.33l2.54,7.06-.12,0a7.67,7.67,0,0,0-4.28,9.22Z"/><path class="cls-3" d="M1.08,56.19l1.28,0c.5,0,.82.08,1,.28a1.45,1.45,0,0,1,.29,1c0,.45,0,.89,0,1.29V71.61c0,.89,0,1.76,0,2.61A7.5,7.5,0,0,0,4,76.5a6.41,6.41,0,0,0,1.41,2.44A7.05,7.05,0,0,0,7.76,80.5a3,3,0,0,0,.88.25c.3,0,.61.1.91.17A3.93,3.93,0,0,0,10,81a3.5,3.5,0,0,1,.48.06h.38a4,4,0,0,1,.48,0,1,1,0,0,0,.44-.06,1.33,1.33,0,0,1,.4,0,1.33,1.33,0,0,0,.4,0c.3-.08.6-.14.88-.19a3.42,3.42,0,0,0,.84-.27A6,6,0,0,0,16.6,79a6.78,6.78,0,0,0,1.31-2.44,8.1,8.1,0,0,0,.37-2.16c0-.8,0-1.62,0-2.46V59.09c0-.43,0-.92,0-1.47a1.73,1.73,0,0,1,.29-1.17.84.84,0,0,1,.71-.26h1l.36,0h.37a1,1,0,0,1,.68.39,1.47,1.47,0,0,1,.17.88c0,.38,0,.72,0,1v13.2c0,1,0,1.87-.05,2.79A9.84,9.84,0,0,1,21.5,77a11.58,11.58,0,0,1-1.39,3.19,7.36,7.36,0,0,1-2.31,2.23,9.26,9.26,0,0,1-1.22.61c-.43.18-.89.35-1.38.5a5.2,5.2,0,0,1-.68.17l-.73.13a4,4,0,0,1-.78.08,3.33,3.33,0,0,0-.78.08h-.46a4.4,4.4,0,0,1-.61,0,4.3,4.3,0,0,1-.61,0h-.46a1.49,1.49,0,0,0-.56-.06A1.69,1.69,0,0,1,9,83.86h-.3a4.65,4.65,0,0,0-.59-.11l-.6-.11-1.27-.37A7.28,7.28,0,0,1,5,82.83a2.49,2.49,0,0,1-.51-.27c-.17-.1-.34-.21-.52-.34A7.37,7.37,0,0,1,2.07,80.5a10,10,0,0,1-1.3-2.33A6.67,6.67,0,0,1,.43,77c-.07-.4-.16-.83-.27-1.26,0-.2,0-.4,0-.59s0-.39-.06-.59v-.38a1.91,1.91,0,0,1,0-.63,4.64,4.64,0,0,0,0-.63V57.18a1,1,0,0,1,.15-.57.92.92,0,0,1,.57-.39A1,1,0,0,0,1.08,56.19Z"/><path class="cls-3" d="M29,56.19l1.53,0a2.1,2.1,0,0,1,1.26.28,2.42,2.42,0,0,1,.57.67l.5.79,1,1.54c.35.52.68,1,1,1.58.18.28.37.56.56.83s.37.54.55.82c.76,1.22,1.54,2.43,2.33,3.64s1.58,2.43,2.36,3.65a10.4,10.4,0,0,0,.67,1A8.84,8.84,0,0,1,42,72q.64,1,1.32,2l1.31,2,.48.74a.82.82,0,0,0,.71.44c.12,0,.19-.09.19-.12a.94.94,0,0,0,.19-.64V58.67a3.82,3.82,0,0,0,0-.57,1.58,1.58,0,0,1,0-.58V57.1a1.18,1.18,0,0,0,.1-.3.62.62,0,0,1,.09-.27.85.85,0,0,1,.69-.32l1,0h.48a1.23,1.23,0,0,1,.44.07.79.79,0,0,1,.51.67,9.29,9.29,0,0,1,.06,1.13v23.4c0,.28,0,.56,0,.84a1,1,0,0,1-.17.65.7.7,0,0,1-.37.28l-.51.14H46.6a1.61,1.61,0,0,1-.78-.16.87.87,0,0,1-.48-.38c-.11-.18-.23-.35-.36-.53l-.63-1q-.33-.5-.63-1Q42.34,78.3,41,76.27t-2.68-4.13c-.48-.76-1-1.51-1.46-2.25s-1-1.49-1.47-2.25q-1.26-2-2.64-4-.15-.27-.3-.51a1.6,1.6,0,0,0-.42-.44l-.15-.12a.2.2,0,0,0-.2,0,.38.38,0,0,0-.26.31,4.48,4.48,0,0,1-.12.46v.26a1.67,1.67,0,0,0,0,.6,4.44,4.44,0,0,1,0,.63V81.23c0,.12,0,.28,0,.46a1,1,0,0,1-.06.46v.3a2.39,2.39,0,0,1-.15.53.4.4,0,0,1-.27.25l-.42.14h-.76c-.36,0-.67,0-1,0A.78.78,0,0,1,28.1,83a1,1,0,0,1-.18-.63v-25a1.61,1.61,0,0,1,.18-.82,1.11,1.11,0,0,1,.46-.35.48.48,0,0,1,.21,0A.44.44,0,0,0,29,56.19Z"/><path class="cls-3" d="M56.93,56.26h.6a3.86,3.86,0,0,1,.68,0,2.7,2.7,0,0,1,.59.09.75.75,0,0,1,.38.23,1.19,1.19,0,0,1,.24.74c0,.32,0,.65,0,1V82.24a1.58,1.58,0,0,1-.2.86.59.59,0,0,1-.36.23c-.14,0-.31.06-.51.11h-.73c-.35,0-.69,0-1,0A.74.74,0,0,1,56,83a1.13,1.13,0,0,1-.15-.63v-24c0-.28,0-.59,0-.94a1.37,1.37,0,0,1,.17-.82,1,1,0,0,1,.61-.38.26.26,0,0,1,.15,0A.23.23,0,0,0,56.93,56.26Z"/><path class="cls-2" d="M72,56.22h1.3a1.56,1.56,0,0,1,1,.28.88.88,0,0,1,.39.61c0,.28.1.55.15.81s.19.7.26,1.05.17.69.27,1a1.09,1.09,0,0,1,.08.39.9.9,0,0,0,.08.38A10.25,10.25,0,0,1,75.84,62a10.67,10.67,0,0,0,.28,1.26,5.81,5.81,0,0,1,.28,1.09,4.48,4.48,0,0,0,.26,1.08c.3,1.1.57,2.2.8,3.33s.5,2.23.8,3.35l.12.69a17.7,17.7,0,0,1,.44,1.81,11.07,11.07,0,0,0,.48,1.82c0,.2.11.45.19.74a.49.49,0,0,0,.49.44.33.33,0,0,1,.14-.09.22.22,0,0,0,.09-.1,2,2,0,0,0,.33-.74c.06-.3.13-.58.2-.86s.25-.77.35-1.17.21-.78.34-1.16a.84.84,0,0,0,.08-.36,1,1,0,0,1,.07-.37,7.52,7.52,0,0,0,.31-1.11,7.75,7.75,0,0,1,.31-1.1.93.93,0,0,0,.07-.33.93.93,0,0,1,.08-.32c.1-.31.18-.62.25-.94a5.51,5.51,0,0,1,.28-1c.05-.23.11-.46.17-.68l.21-.73c.28-.89.53-1.81.75-2.75s.46-1.86.74-2.75a.93.93,0,0,0,.08-.34.83.83,0,0,1,.08-.35c.15-.43.27-.87.38-1.31a11.75,11.75,0,0,1,.38-1.32c.08-.28.14-.54.19-.78a.86.86,0,0,1,.38-.56,1.51,1.51,0,0,1,.9-.23h1.72a1.38,1.38,0,0,1,.51,0,.84.84,0,0,1,.65.54c.08.25.18.55.31.88a5.81,5.81,0,0,1,.28,1,7.54,7.54,0,0,0,.29,1.05.93.93,0,0,1,0,.23.6.6,0,0,0,.07.26,9.14,9.14,0,0,1,.33,1.15,8.54,8.54,0,0,0,.32,1.14,1.38,1.38,0,0,1,0,.31.63.63,0,0,0,.08.27A7,7,0,0,1,92,64c.07.32.15.63.25.94a.4.4,0,0,1,.08.23,1.38,1.38,0,0,0,0,.26,4.69,4.69,0,0,1,.24.82,5.26,5.26,0,0,0,.22.82c.06.21.11.4.16.6s.1.38.15.59c.23.71.43,1.44.59,2.17s.37,1.48.59,2.22a1.36,1.36,0,0,1,.1.42,1.18,1.18,0,0,0,.1.42A14.26,14.26,0,0,1,95,75a14.85,14.85,0,0,0,.4,1.49c0,.17.11.4.18.68s.22.44.43.46a.17.17,0,0,0,.19,0,.72.72,0,0,0,.11-.15,1.44,1.44,0,0,0,.23-.42c0-.15.1-.33.15-.53.15-.49.29-1,.4-1.49l.36-1.53a3.52,3.52,0,0,0,.12-.52,3.45,3.45,0,0,1,.12-.55A9.33,9.33,0,0,0,98,71.05c.09-.47.19-.94.32-1.43.36-1.22.67-2.46.94-3.74s.58-2.52.93-3.74c.1-.38.19-.77.27-1.16a9.41,9.41,0,0,1,.3-1.16,9.89,9.89,0,0,0,.25-1.15,7,7,0,0,1,.29-1.11c.05-.2.11-.4.17-.61a1,1,0,0,1,.29-.46,1.44,1.44,0,0,1,.65-.23c.25,0,.52,0,.8,0h.8a.66.66,0,0,1,.21,0h.21a.91.91,0,0,1,.4.31.76.76,0,0,1,.1.61c-.11.36-.2.71-.29,1.07s-.18.71-.29,1.07-.14.46-.19.68a5.91,5.91,0,0,1-.19.69,4.53,4.53,0,0,0-.26,1c-.06.34-.14.67-.23,1a13,13,0,0,0-.41,1.37c-.11.48-.23.94-.36,1.37a1.38,1.38,0,0,0-.09.39,2,2,0,0,1-.1.38,7.25,7.25,0,0,0-.3,1.08,7.61,7.61,0,0,1-.31,1.09,1,1,0,0,0-.08.35.94.94,0,0,1-.07.34,6.21,6.21,0,0,0-.25.94,7.7,7.7,0,0,1-.25.89.67.67,0,0,0-.07.27.93.93,0,0,1,0,.23,7.21,7.21,0,0,0-.25.94,8,8,0,0,1-.25.93,5.36,5.36,0,0,0-.19.67c0,.24-.12.48-.19.71a20.48,20.48,0,0,0-.59,2.11c-.17.73-.35,1.43-.56,2.12a.94.94,0,0,0-.07.34,1,1,0,0,1-.08.35,9.32,9.32,0,0,0-.32,1.13,9.71,9.71,0,0,1-.33,1.12c-.07.28-.15.55-.23.82a.91.91,0,0,1-.42.59,1.2,1.2,0,0,1-.72.19H95.13a2.37,2.37,0,0,0-.43-.09.72.72,0,0,1-.37-.17,1.06,1.06,0,0,1-.32-.5c-.07-.2-.12-.41-.17-.61A8.62,8.62,0,0,1,93.53,81a7.19,7.19,0,0,0-.31-1.07.82.82,0,0,1-.07-.28.67.67,0,0,0-.08-.29c-.12-.43-.24-.88-.34-1.36a13.62,13.62,0,0,0-.38-1.39A10.75,10.75,0,0,1,92,75.39a9.47,9.47,0,0,0-.32-1.19,5.14,5.14,0,0,1-.23-.83,5.25,5.25,0,0,0-.23-.84c-.3-1-.57-2-.8-2.92s-.49-2-.8-2.89a1.67,1.67,0,0,1-.1-.4,1.91,1.91,0,0,0-.09-.44A12.42,12.42,0,0,1,89,64.36a12.57,12.57,0,0,0-.44-1.53c0-.2-.12-.45-.21-.73a.55.55,0,0,0-.56-.42c0,.06,0,.08-.07.08s-.06,0-.11.08a1.83,1.83,0,0,0-.33.76,5,5,0,0,1-.25.88c-.13.43-.25.86-.36,1.3s-.23.86-.36,1.29a.63.63,0,0,0-.08.27.6.6,0,0,1-.07.27,6.05,6.05,0,0,0-.29,1.09,8.41,8.41,0,0,1-.29,1.12,3.84,3.84,0,0,0-.22.74c-.06.25-.12.51-.2.79-.28.86-.52,1.75-.74,2.65s-.46,1.79-.75,2.66a.61.61,0,0,0-.07.28.67.67,0,0,1-.08.29,6.71,6.71,0,0,0-.3,1.11,9.65,9.65,0,0,1-.31,1.14,1.27,1.27,0,0,0-.09.33,2.69,2.69,0,0,1-.1.32c-.13.43-.25.86-.36,1.3s-.24.86-.37,1.29a6.46,6.46,0,0,0-.24.86.88.88,0,0,1-.44.63,1.51,1.51,0,0,1-.82.19h-1l-.54,0a1.3,1.3,0,0,1-.49,0,.91.91,0,0,1-.77-.63c-.08-.32-.18-.68-.3-1.09A13.22,13.22,0,0,1,77,80a14.63,14.63,0,0,0-.44-1.64,1.37,1.37,0,0,1-.1-.41,1.3,1.3,0,0,0-.09-.39,12.49,12.49,0,0,1-.48-1.82,12,12,0,0,0-.48-1.81,2.45,2.45,0,0,1,0-.35,2.05,2.05,0,0,0-.1-.34,7.52,7.52,0,0,1-.3-1.2,8.77,8.77,0,0,0-.31-1.2.67.67,0,0,1-.08-.29.68.68,0,0,0-.07-.29c-.08-.28-.15-.56-.21-.86a8.29,8.29,0,0,0-.25-.85,2.32,2.32,0,0,1-.06-.27,1.68,1.68,0,0,0-.06-.27c-.07-.26-.14-.51-.19-.76s-.11-.52-.19-.8a4.42,4.42,0,0,1-.17-.65,5.78,5.78,0,0,0-.17-.69,11.24,11.24,0,0,1-.48-1.72,14.45,14.45,0,0,0-.44-1.72,2.46,2.46,0,0,1-.11-.45c0-.16-.07-.32-.12-.5-.13-.43-.24-.89-.36-1.37s-.23-1-.36-1.42a6,6,0,0,1-.17-.66.84.84,0,0,1,.09-.71.69.69,0,0,1,.5-.31.2.2,0,0,1,.15,0A.21.21,0,0,0,72,56.22Z"/><path class="cls-2" d="M124,72.75a2.71,2.71,0,0,1,0,.86,1.11,1.11,0,0,1-.25.67,1.17,1.17,0,0,1-.55.21,5,5,0,0,1-.82.06l-.92,0-.8,0h-9.77l-.61,0a1.14,1.14,0,0,0-.5.13,1,1,0,0,0-.31.31,1.67,1.67,0,0,0-.14.32.47.47,0,0,0,0,.4,2.36,2.36,0,0,1,0,.35,1,1,0,0,0,0,.3l.15.63a2.8,2.8,0,0,0,.23.63,5.36,5.36,0,0,0,2.9,2.94,2.72,2.72,0,0,0,.5.19l.53.15a1.24,1.24,0,0,0,.39,0,6.29,6.29,0,0,0,2.82,0c.36-.1.68-.21,1-.32a3.79,3.79,0,0,0,.82-.44,3.19,3.19,0,0,0,.73-.63,5.4,5.4,0,0,0,.54-.78,5.91,5.91,0,0,0,.39-.8,1.12,1.12,0,0,1,.6-.61,1.44,1.44,0,0,1,.49-.12,5.35,5.35,0,0,1,.69,0,6.26,6.26,0,0,1,.65.06.76.76,0,0,1,.42.15.71.71,0,0,1,.19.88,7.66,7.66,0,0,1-.8,1.83,8,8,0,0,1-1.74,2,7.9,7.9,0,0,1-2.46,1.27,3.11,3.11,0,0,1-.76.22c-.26,0-.53.08-.81.13a2.2,2.2,0,0,1-.36,0,2.28,2.28,0,0,0-.36,0h-.38a2,2,0,0,1-.44,0,1.45,1.45,0,0,1-.4,0h-.35l-.34,0a1.76,1.76,0,0,1-.31,0,2.49,2.49,0,0,0-.42-.06l-.42,0-.68-.18a5.51,5.51,0,0,1-.65-.21.85.85,0,0,0-.27-.09,1.24,1.24,0,0,1-.26-.1,12.39,12.39,0,0,1-1.23-.65,7.41,7.41,0,0,1-1.89-1.77,10.47,10.47,0,0,1-1.31-2.35,3.79,3.79,0,0,1-.29-.88,9.41,9.41,0,0,0-.25-.91,1.76,1.76,0,0,1,0-.27,2.11,2.11,0,0,0,0-.31,4.17,4.17,0,0,1-.12-.65c0-.22-.06-.45-.11-.68v-.54a2,2,0,0,1-.06-.44,1.39,1.39,0,0,1,0-.47v-.42a.91.91,0,0,0,.06-.4,1.11,1.11,0,0,1,0-.41c.1-.4.18-.81.24-1.22a5.34,5.34,0,0,1,.32-1.14c.13-.28.26-.57.37-.86a7.41,7.41,0,0,1,.4-.86,11.2,11.2,0,0,1,1.91-2.31,8.88,8.88,0,0,1,2.63-1.62,5.36,5.36,0,0,1,.94-.29l1-.21.34-.06h.35a.21.21,0,0,1,.19,0,.19.19,0,0,0,.19,0,8.26,8.26,0,0,1,4.92,1.29.91.91,0,0,1,.31.22,1.33,1.33,0,0,0,.26.21,7.16,7.16,0,0,1,.64.53,5,5,0,0,1,.55.61,13.25,13.25,0,0,1,1,1.53,3.59,3.59,0,0,1,.42.91c.1.33.21.66.34,1a5.07,5.07,0,0,1,.29,1,8.13,8.13,0,0,0,.25,1.06l.06.54C124,72.4,124,72.58,124,72.75Zm-3.7-1.29a1.43,1.43,0,0,0,.19-.41.89.89,0,0,0,0-.51,6.34,6.34,0,0,0-.65-1.56,7,7,0,0,0-1.18-1.49,5.28,5.28,0,0,0-1.68-1l-.54-.14-.57-.13a2.69,2.69,0,0,0-.65-.08h-.65a.38.38,0,0,1-.26.06.59.59,0,0,0-.27,0l-.59.13-.56.14a5.2,5.2,0,0,0-1.77,1.14,6.89,6.89,0,0,0-1.2,1.72,2.7,2.7,0,0,0-.23.48,4.67,4.67,0,0,0-.2.63,2,2,0,0,0,0,.65.57.57,0,0,0,.27.45,1.67,1.67,0,0,0,1,.21l1.28,0h5.81l1.37,0A1.36,1.36,0,0,0,120.33,71.46Z"/><path class="cls-2" d="M146.25,73.1a3.29,3.29,0,0,1,0,.51,3.33,3.33,0,0,1,0,.52,2.3,2.3,0,0,1,0,.28,1.62,1.62,0,0,0,0,.33,2.55,2.55,0,0,0-.08.61,2.13,2.13,0,0,1-.08.61,1.5,1.5,0,0,0,0,.29,1.45,1.45,0,0,1,0,.28c-.07.28-.15.55-.21.81a6.12,6.12,0,0,1-.25.76,11,11,0,0,1-1.3,2.4,7,7,0,0,1-1.91,1.84,10,10,0,0,1-1.1.64,5.93,5.93,0,0,1-.82.31l-.82.23a3.4,3.4,0,0,1-.5.1,1.87,1.87,0,0,0-.46.09h-.38a2.18,2.18,0,0,1-.57.1,1.76,1.76,0,0,1-.61-.06h-.38a1.15,1.15,0,0,0-.33,0,1.53,1.53,0,0,1-.36,0l-1.13-.27a5.21,5.21,0,0,1-1.08-.34,5.71,5.71,0,0,1-1.38-.76l-.46-.4a1.2,1.2,0,0,0-.53-.29.39.39,0,0,0-.36.1.6.6,0,0,0-.19.36,2.41,2.41,0,0,0-.08.48.92.92,0,0,1-.1.36,1.82,1.82,0,0,1-.34.34,1.65,1.65,0,0,1-.52.1l-.68,0a3.48,3.48,0,0,1-.67-.06,1.48,1.48,0,0,1-.46-.14,1,1,0,0,1-.15-.19l-.15-.22a2.53,2.53,0,0,1-.1-.92c0-.41,0-.75,0-1V58.4c0-.3,0-.63,0-1a1.49,1.49,0,0,1,.17-.82,1.14,1.14,0,0,1,.5-.39h.19l.19,0a10.46,10.46,0,0,1,1.13,0,1,1,0,0,1,.82.32,1.74,1.74,0,0,1,.19.86V63.5c0,.24,0,.48,0,.72a5.63,5.63,0,0,0,.07.65.64.64,0,0,0,.21.4.34.34,0,0,0,.35,0,1.66,1.66,0,0,0,.3-.15c.13-.1.25-.21.36-.31l.37-.3a6.37,6.37,0,0,1,.55-.35l.59-.3a5.65,5.65,0,0,1,1.64-.5,12.61,12.61,0,0,1,1.95-.15,11.49,11.49,0,0,1,2,.17,8.15,8.15,0,0,1,1.68.48,8,8,0,0,1,2.63,1.79,8.76,8.76,0,0,1,1.75,2.67,7.4,7.4,0,0,1,.33.82c.09.27.19.55.29.82a6.37,6.37,0,0,1,.17.87c0,.29.08.57.13.85a.69.69,0,0,1,0,.25,1,1,0,0,0,0,.25.74.74,0,0,1,0,.44A.67.67,0,0,0,146.25,73.1Zm-3.4,1a1,1,0,0,0,0-.46,2.93,2.93,0,0,1,0-.49c0-.44,0-.84,0-1.23a4,4,0,0,0-.26-1c-.07-.25-.13-.48-.18-.68a2.86,2.86,0,0,0-.24-.61A6.9,6.9,0,0,0,141,67.81a4.71,4.71,0,0,0-1.68-1.24l-.59-.21-.59-.17a3.57,3.57,0,0,0-.85-.13c-.27,0-.58,0-.91,0l-.34,0a1.89,1.89,0,0,1-.35,0l-.66.15a2.82,2.82,0,0,0-.63.24,4.64,4.64,0,0,0-2.07,1.58,9.12,9.12,0,0,0-1.22,2.46,3.63,3.63,0,0,0-.19.84,4.91,4.91,0,0,1-.15.88.65.65,0,0,0,0,.34.59.59,0,0,1,0,.34,2.73,2.73,0,0,0,0,.56,2.62,2.62,0,0,0,0,.55v.31a1.54,1.54,0,0,1,0,.3.77.77,0,0,0,0,.27,1,1,0,0,1,0,.25.69.69,0,0,0,0,.25c0,.2.09.4.13.61s.08.4.13.61a6.92,6.92,0,0,0,1.16,2.21,6.36,6.36,0,0,0,1.86,1.53,3.19,3.19,0,0,0,.72.29l.8.2a.62.62,0,0,0,.37.06,1.5,1.5,0,0,1,.36,0,1.22,1.22,0,0,0,.34,0h.69a.92.92,0,0,1,.26,0,.93.93,0,0,0,.27,0l.58-.13a5.84,5.84,0,0,0,.57-.17A5,5,0,0,0,141,79.3a6,6,0,0,0,1.52-3.09,9,9,0,0,1,.25-1.12.81.81,0,0,0,.05-.37,1.11,1.11,0,0,1,0-.36Z"/></svg>